<svg xmlns="http://www.w3.org/2000/svg" viewBox="0 0 64 64">
  <rect width="64" height="64" rx="14" fill="#0B0906"/>
  <circle cx="32" cy="32" r="25.5" fill="none" stroke="#D98E4A" stroke-opacity="0.55" stroke-width="1.4"/>
  <g transform="translate(11.5 39.3) scale(0.0262)" fill="#F7F1E6">
    <path d="M305 3L236 3L59-592Q52-615 44-625.50Q36-636 16-645L4-650L4-660L269-660L269-650L248-642Q225-633 217-620Q209-607 216-584L325-168L443-517L420-588Q413-609 407-620Q401-631 387-638L365-650L365-660L616-660L616-650L585-638Q565-631 562.50-617.50Q560-604 567-583L694-158L814-575Q821-599 819-617Q817-635 794-643L773-650L773-660L912-660L912-650L886-640Q866-633 858-618Q850-603 844-581L678 3L609 3L459-467"/>
    <path transform="translate(988 0)" d="M276 0L22 0L22-10L40-17Q60-25 67.50-37Q75-49 75-69L75-591Q75-612 67.50-624Q60-636 40-643L22-650L22-660L309-660Q431-660 485-615.50Q539-571 539-503Q539-452 499.50-410.50Q460-369 364-352Q474-340 525-294.50Q576-249 576-184Q576-152 562-119.50Q548-87 514.50-60Q481-33 423-16.50Q365 0 276 0M223-640L223-353L266-353Q333-353 362.50-384Q392-415 392-492Q392-572 365-606Q338-640 277-640L223-640M223-333L223-20L273-20Q348-20 384.50-60Q421-100 421-185Q421-265 386-299Q351-333 271-333"/>
    <path transform="translate(1596 0) scale(0.85)" fill="#D98E4A" d="M150-330Q114-330 89-355Q64-380 64-415Q64-450 89-476Q114-502 150-502Q186-502 211-476Q236-450 236-415Q236-380 211-355Q186-330 150-330M87 159L81 145Q115 124 132.50 94.50Q150 65 157 21L124 7Q95-7 79.50-29.50Q64-52 64-75Q64-110 87-133.50Q110-157 147-157Q185-157 208.50-130.50Q232-104 232-54Q232 1 209.50 44.50Q187 88 154 117.50Q121 147 87 159"/>
  </g>
</svg>
